<svg xmlns="http://www.w3.org/2000/svg" xmlns:xlink="http://www.w3.org/1999/xlink" viewBox="0 0 326.39 143.4"><defs><style>.cls-1{fill:none;}.cls-2{fill:#fff;}.cls-3{fill:#ef3641;}.cls-4{fill:#f6cfd7;}.cls-5{clip-path:url(#clip-path);}.cls-6{fill:#f6cdd7;}.cls-7{fill:#f5333f;}</style><clipPath id="clip-path" transform="translate(0)"><rect class="cls-1" y="2.45" width="126.46" height="136.88"/></clipPath></defs><g id="Layer_2" data-name="Layer 2"><g id="Layer_1-2" data-name="Layer 1"><path class="cls-2" d="M144.92,65.81a2.47,2.47,0,0,1,2.23-2.7c2-.32,3.59,2,6.33,1.82,2.2-.11,4.22-2.34,4.14-4s-2.37-3.31-5-4.85c-3-1.83-5.27-3.55-5.41-6.21-.25-5.16,7-9.55,12.76-9.83,3-.31,5.91.84,6,3,.14,2.81-2.3,2.7-4.73,2.82a12.61,12.61,0,0,0-6.08,1.67c-1.93,1.16-2,2.23-.14,3.36,5,3.26,8,4.7,8.25,9.94s-4.62,9.67-10.24,9.94C149.36,70.92,145.05,68.54,144.92,65.81Z" transform="translate(0)"/><path class="cls-2" d="M170.06,63.2c-.07-7.68,5-20.72,10.13-24.63,2.78-2.19,5.61-2,8.09.44,1.85,2,2.66,4.59,2,6.3a2.64,2.64,0,0,1-4.53.6c-1-1.09-.71-2-1.79-2.35-3.23-.52-8.7,15-8.08,20,.2,2.43,2.14,3.25,4.12,1.7,1.46-1.21,3.74-4.44,4.55-4.94a2.61,2.61,0,0,1,3.7,1c1.74,2.88-3.85,8.41-7,9.86C175.67,73.5,170.15,69.67,170.06,63.2Z" transform="translate(0)"/><path class="cls-2" d="M208.09,64.22l.78-2.71c.7-2.69.38-3.14-2.36-3.15-1.15,0-2.36,0-3.5,0a2.27,2.27,0,0,0-2.35,1.79c-1.28,4.86-1.94,7-2.29,7.65A2.67,2.67,0,0,1,195.24,69a2.57,2.57,0,0,1-1.89-2.73c.05-2,6.48-24.6,7.84-26.26a2.87,2.87,0,0,1,3.07-1,2.64,2.64,0,0,1,1.66,2.73c0,.84-1.47,5.63-2.33,8.41-.45,1.63.12,2.43,1.87,2.42l4.25-.21c1.82-.16,1.93-1.16,2.64-3.63,2.65-8,3-8.82,3.41-9.6a2.76,2.76,0,0,1,3.43-1.47c1.55.61,2.09,2.34,1.37,4.58l-4.27,13.76c-2.81,9.35-3.07,13.39-6.38,12.57C208.21,68.17,207.52,66.6,208.09,64.22Z" transform="translate(0)"/><path class="cls-2" d="M226.84,64.81c-4.49-6.24-1.25-17.74,4.28-24.41a12.76,12.76,0,0,1,3.36-2.83c1.94-.86,3.17-.61,4.53.84a4.54,4.54,0,0,0,1.9,1.35c2.41,1.18,3.31,5.4,2.86,8.77-.89,6.44-3,13.24-7.22,17.17C233.36,68.75,229.45,68.34,226.84,64.81Zm10.95-20.32c-.6-1.42-1.73-1.06-2.88.21-2.79,3.72-4.78,8-4.53,13,.1,2.13.62,3.47,1.84,3.57C235.29,61.66,239.12,48.23,237.79,44.49Z" transform="translate(0)"/><path class="cls-2" d="M251.06,63.62c-4.49-6.25-1.25-17.75,4.28-24.42a12.53,12.53,0,0,1,3.36-2.82c1.94-.86,3.17-.62,4.53.84a4.54,4.54,0,0,0,1.9,1.35c2.41,1.17,3.31,5.39,2.87,8.76-.9,6.44-3,13.24-7.23,17.18C257.58,67.56,253.67,67.14,251.06,63.62ZM262,43.29c-.6-1.42-1.73-1.06-2.88.22-2.79,3.71-4.78,8-4.53,13,.1,2.12.62,3.47,1.85,3.56C259.51,60.46,263.34,47,262,43.29Z" transform="translate(0)"/><path class="cls-2" d="M272,62c-.31-1.66,1.86-8.62,4.14-16.27,1-3.24,2-6.49,2.87-9.8.7-2.78,1.79-3.75,3.64-3.38s2.53,2,1.69,4.94c-1.55,5.56-3.11,11-4.09,14.36-1.11,3.78-1.71,5.41-.62,5.89.55.28,1.75.07,4.38-.6,2.34-.57,4.31-.59,4.73,1.6a2.65,2.65,0,0,1-1.68,3.12c-3.43,1.32-10.35,3.1-11.72,3.09C273.51,65,272.39,63.94,272,62Z" transform="translate(0)"/><path class="cls-2" d="M146.48,96c-2.62-3.65-.73-10.35,2.49-14.24a7.3,7.3,0,0,1,2-1.65,2,2,0,0,1,2.64.49,2.64,2.64,0,0,0,1.11.79c1.41.68,1.93,3.14,1.67,5.11-.53,3.75-1.75,7.72-4.21,10A3.53,3.53,0,0,1,146.48,96Zm6.38-11.86c-.35-.82-1-.61-1.68.13a11.54,11.54,0,0,0-2.64,7.59c.06,1.23.36,2,1.07,2.07C151.4,94.14,153.63,86.3,152.86,84.12Z" transform="translate(0)"/><path class="cls-2" d="M158.72,95.86a8.86,8.86,0,0,1,.65-3,95,95,0,0,0,2.56-11.08c.13-1.83,1-2.89,2.37-3.18,4.34-1.15,8.53-2.51,9,0,.15,1.33-.9,1.56-2.26,1.89-.84.13-1.62.48-4.53.93-1.32.2-1.37.91-1.81,3.73-.17,1,.11,1.33,1.13,1.32,1.64-.08,2.83-.18,3.08,1.14.45,2-1.73,2-4.24,2.38a1.36,1.36,0,0,0-1.36,1.22c-.74,3-1.48,5-1.86,5.42a1.52,1.52,0,0,1-2.7-.8Z" transform="translate(0)"/><path class="cls-2" d="M183.56,101.47c-.27-10.1,7.21-25.09,15.26-25.48a5.16,5.16,0,0,1,5.37,5.59,2.82,2.82,0,0,1-1.69,2.82,2.49,2.49,0,0,1-3-.76c-1.12-1-1.46-1.83-2.7-.7-3.36,2.75-6.93,10.69-7.59,15.82-.33,2.6.39,4.85,2.37,3.31,1.61-1.22,2.26-2,3.55-2.08a2.64,2.64,0,0,1,2.71,2.61c.14,2.81-4.51,5.7-7.92,5.87C185.66,108.68,183.74,105.27,183.56,101.47Z" transform="translate(0)"/><path class="cls-2" d="M209.69,103.53c-4.5-6.24-1.26-17.74,4.27-24.41a12.64,12.64,0,0,1,3.37-2.83c1.93-.86,3.16-.61,4.53.84a4.48,4.48,0,0,0,1.89,1.36c2.42,1.17,3.31,5.39,2.87,8.76-.9,6.44-3,13.24-7.22,17.18C216.2,107.47,212.3,107.06,209.69,103.53Zm10.95-20.32c-.61-1.42-1.73-1.06-2.89.21-2.78,3.72-4.78,8-4.53,13,.11,2.13.63,3.47,1.85,3.57C218.13,100.38,222,87,220.64,83.21Z" transform="translate(0)"/><path class="cls-2" d="M230.63,102.12c-.09-1.75.79-5.59,2.7-11.47.59-2.09,1.7-5.79,2.54-8.8,1.71-5.49,2.48-8.27,6.8-7,5.71,1.55,9.52,4.63,11.73,9.32a11.38,11.38,0,0,1-1.16,11.93c-5,6.72-11.7,9.79-19.8,9.12C231.61,105,230.72,104,230.63,102.12Zm19.13-13.27c-.15-3-3.15-6.77-6.08-7.62-1.16-.4-1.74.32-2.2,1.86-.58,2-4,13.67-4.23,14.44-.16,1.46.71,2.1,2.06,1.73C244.41,97.64,249.77,93.64,249.76,88.85Z" transform="translate(0)"/><path class="cls-2" d="M259.1,99.27a37.1,37.1,0,0,1,.69-7.65c.53-3.14,2.87-12.92,3.54-14.78,1.19-3.64,2.64-4.93,5.61-4.92,5.09-.25,10.64-.45,11,2.65.7,3.47-4.7,3.43-8.91,3-1.45-.08-2.28.19-2.58,1.73-.24,1.3-.57,2.46-.81,3.69A1.31,1.31,0,0,0,269,84.7c3.28.15,5.47-.27,5.91,2.38.32,3.56-3.43,3.06-7.21,3.62-1.51.16-2,.56-2.34,2-.18.92-.28,2-.38,3,0,1.22.62,1.88,2,1.81,4.78-.24,7.58-2.2,8.43,1.26a2.65,2.65,0,0,1-1.38,2.88c-1.18.67-9.49,1.92-10.48,2C260.68,103.45,259.24,102.08,259.1,99.27Z" transform="translate(0)"/><path class="cls-3" d="M145.24,107.75,166,106.38a3,3,0,0,0-.4-6l-20.74,1.37a3,3,0,0,0,.4,6" transform="translate(0)"/><path class="cls-4" d="M282,125.32l8.81,7.53a3,3,0,1,0,3.9-4.56l-8.81-7.53a3,3,0,1,0-3.9,4.56" transform="translate(0)"/><path class="cls-4" d="M308.74,81.27,323,83.1a3,3,0,0,0,.76-5.95L309.5,75.32a3,3,0,1,0-.76,6" transform="translate(0)"/><path class="cls-4" d="M140.25,118l-5.2,7.9a3,3,0,1,0,5,3.3l5.2-7.9a3,3,0,1,0-5-3.3" transform="translate(0)"/><path class="cls-4" d="M222.73,125.45,221,140a3,3,0,0,0,6,.71l1.76-14.58a3,3,0,0,0-6-.72" transform="translate(0)"/><path class="cls-4" d="M151,24.79,142,16a3,3,0,1,0-4.21,4.27l9,8.84A3,3,0,1,0,151,24.79" transform="translate(0)"/><path class="cls-4" d="M308,27.37l5.5-11.77a3,3,0,1,0-5.43-2.54l-5.5,11.77A3,3,0,1,0,308,27.37" transform="translate(0)"/><path class="cls-4" d="M229.65,19.23l1.76-15.9a3,3,0,0,0-6-.66l-1.76,15.9a3,3,0,0,0,6,.66" transform="translate(0)"/><g class="cls-5"><path class="cls-6" d="M117.19,56.77,109.08,46.4h-5.31V39l-3.16-3.86V27h3.16V13.68L95.35,2.9H72V6.73A14.25,14.25,0,0,0,62.14,2.9H47.85V6.28A14.49,14.49,0,0,0,26.18,8.61c-.08-.09-.15-.19-.23-.29l-.31-.39A14.14,14.14,0,0,0,14.3,2.45,14.17,14.17,0,0,0,0,16.79V30.33a14.51,14.51,0,0,0,3.26,9.25c.09.13,5.25,6.73,5.32,6.82H.74V85.06l5.43,7A14.23,14.23,0,0,0,.74,103.33v13.55A14.5,14.5,0,0,0,4,126.12c.09.13,5.93,7.6,6,7.73a14.14,14.14,0,0,0,11.35,5.48,14.35,14.35,0,0,0,9.53-3.55l2.37,3.1h59V125.54L83.9,114.77H82.84V100.22l-3.42-4.38h9.74V88.68l5.6,7.16h13.06l.8-3.38h.29l2.48,3.38h15.07l-9.27-39.07Z" transform="translate(0)"/></g><path class="cls-7" d="M18.24,24.91a2.32,2.32,0,0,1,2.38-2.4L23,25.67h4.71v4.66a10.7,10.7,0,0,0,1.23,5L28.76,35l-4.22-5.41h-6.3V24.91ZM12.47,44.79a10.07,10.07,0,0,0,8.17,3.94A10,10,0,0,0,30.88,38.45V38c.05.06,5.18,6.63,5.29,6.76a10.36,10.36,0,0,0,17.64-2.3l4.43,5.79H68.48a10,10,0,0,0,9.38-6l4.53,6H99.71V40.4l-3.92-4.8h.76V27.76L92.63,23h7.08V15.07L93.37,7H76.05V18.25h0c-.1-.13-5.63-7.22-5.74-7.35A10.1,10.1,0,0,0,62.14,7H51.9V17.8h0c-.1-.13-5.63-7.21-5.74-7.34a10.31,10.31,0,0,0-18.41,6.34v.42c-.05-.06-5.18-6.63-5.29-6.76A10.09,10.09,0,0,0,14.3,6.51,10,10,0,0,0,4.06,16.79V30.33a10.38,10.38,0,0,0,2.37,6.73l6,7.73Z" transform="translate(0)"/><polygon class="cls-7" points="85.11 58.57 78.77 50.45 61.45 50.45 61.45 55.09 58.14 50.45 50.18 50.45 48.46 54.77 48.46 54.7 45.14 50.45 37.3 50.45 37.3 55.48 37.25 55.48 33.63 50.45 25.79 50.45 25.79 80.8 25.74 80.8 22.12 75.78 18.98 75.78 18.98 58.57 12.64 50.45 4.8 50.45 4.8 83.67 11.14 91.78 28.46 91.78 28.46 86.76 32.13 91.78 39.97 91.78 39.97 86.76 43.64 91.78 51.48 91.78 51.48 85.21 56.52 91.78 85.11 91.78 85.11 83.01 81.95 79.09 81.95 71.25 78.02 66.45 85.11 66.45 85.11 58.57 85.11 58.57"/><path class="cls-7" d="M78.79,118.82V101.61L72.45,93.5H64.6v11.29h0c-.1-.13-5.63-7.22-5.74-7.35A10.09,10.09,0,0,0,50.7,93.5H40.46v5h-.05l-3.62-5H29v10.84h0c-.1-.14-5.63-7.22-5.74-7.35A10.09,10.09,0,0,0,15,93.05,10,10,0,0,0,4.8,103.33v13.55a10.35,10.35,0,0,0,2.37,6.72l6,7.73a10.08,10.08,0,0,0,8.17,3.95A10,10,0,0,0,30.85,129l4.44,5.79h7.84v-5l3.67,5h7.84v-6.18l4.8,6.18h7.84v-5l3.66,5H88.27v-7.88l-6.34-8.12Z" transform="translate(0)"/><polygon class="cls-7" points="113.44 58.57 107.1 50.45 98.28 50.45 90.4 83.67 96.73 91.78 104.62 91.78 105.42 88.41 110.96 88.41 113.44 91.78 121.32 91.78 113.44 58.57 113.44 58.57"/><path class="cls-2" d="M14.3,6.51A10,10,0,0,0,4.06,16.79V30.33A10,10,0,0,0,14.3,40.62,10,10,0,0,0,24.54,30.33v-.76H16.7v.76a2.32,2.32,0,0,1-2.4,2.4,2.32,2.32,0,0,1-2.4-2.4V16.79a2.32,2.32,0,0,1,2.4-2.4,2.32,2.32,0,0,1,2.4,2.4v.76h7.84v-.76A10,10,0,0,0,14.3,6.51Z" transform="translate(0)"/><path class="cls-2" d="M35.6,16.79a2.4,2.4,0,1,1,4.79,0V30.33a2.4,2.4,0,1,1-4.79,0V16.79ZM38,6.51A10,10,0,0,0,27.75,16.79V30.33A10,10,0,0,0,38,40.62,10,10,0,0,0,48.24,30.33V16.79A10,10,0,0,0,38,6.51Z" transform="translate(0)"/><path class="cls-2" d="M59.75,14.84h2.39a2.32,2.32,0,0,1,2.4,2.4V29.88a2.32,2.32,0,0,1-2.4,2.4H59.75V14.84ZM62.14,7H51.9V40.17H62.14A10,10,0,0,0,72.38,29.88V17.24A10,10,0,0,0,62.14,7Z" transform="translate(0)"/><polygon class="cls-2" points="76.05 40.17 93.37 40.17 93.37 32.28 83.89 32.28 83.89 27.48 90.21 27.48 90.21 19.64 83.89 19.64 83.89 14.85 93.37 14.85 93.37 6.96 76.05 6.96 76.05 40.17 76.05 40.17"/><polygon class="cls-2" points="12.64 50.45 4.8 50.45 4.8 83.67 22.12 83.67 22.12 75.78 12.64 75.78 12.64 50.45 12.64 50.45"/><polygon class="cls-2" points="25.79 83.67 33.63 83.67 33.63 50.45 25.79 50.45 25.79 83.67 25.79 83.67"/><polygon class="cls-2" points="50.18 50.45 45.14 63.1 45.14 50.45 37.3 50.45 37.3 83.67 45.14 83.67 45.14 71.02 50.18 83.67 58.14 83.67 51.52 67.06 58.14 50.45 50.18 50.45 50.18 50.45"/><polygon class="cls-2" points="61.45 83.67 78.77 83.67 78.77 75.78 69.29 75.78 69.29 70.98 75.61 70.98 75.61 63.14 69.29 63.14 69.29 58.34 78.77 58.34 78.77 50.45 61.45 50.45 61.45 83.67 61.45 83.67"/><polygon class="cls-2" points="28.95 126.71 36.79 126.71 36.79 93.5 28.95 93.5 28.95 126.71 28.95 126.71"/><path class="cls-2" d="M48.3,101.39h2.4a2.4,2.4,0,1,1,0,4.79H48.3v-4.79Zm2.4-7.89H40.46v33.21H48.3V114h2.4a2.32,2.32,0,0,1,2.4,2.4v10.29h7.84V116.42a10.3,10.3,0,0,0-2.09-6.32,10.26,10.26,0,0,0,2.09-6.32A10,10,0,0,0,50.7,93.5Z" transform="translate(0)"/><polygon class="cls-2" points="72.45 118.82 72.45 93.5 64.61 93.5 64.61 126.71 81.93 126.71 81.93 118.82 72.45 118.82 72.45 118.82"/><path class="cls-2" d="M100.88,72.68l1.81-7.61,1.81,7.61Zm6.22,11H115L107.1,50.45H98.28L90.4,83.66h7.88l.8-3.37h7.22l.8,3.37Z" transform="translate(0)"/><path class="cls-2" d="M15,93.05A10,10,0,0,0,4.8,103.33v13.55A10,10,0,0,0,15,127.16a10,10,0,0,0,10.24-10.28v-9.64H14.6v7.84h2.84v1.8a2.31,2.31,0,0,1-2.4,2.39,2.31,2.31,0,0,1-2.4-2.39V103.33a2.32,2.32,0,0,1,2.4-2.4,2.32,2.32,0,0,1,2.4,2.4v.76h7.84v-.76A10,10,0,0,0,15,93.05Z" transform="translate(0)"/></g></g></svg>